<mxfile host="65bd71144e">
    <diagram id="O1AJxKGvrsLua4BmTdjw" name="Page-1">
        <mxGraphModel dx="5612" dy="3336" grid="1" gridSize="10" guides="1" tooltips="1" connect="1" arrows="1" fold="1" page="1" pageScale="1" pageWidth="1169" pageHeight="827" math="0" shadow="0">
            <root>
                <mxCell id="0"/>
                <mxCell id="1" parent="0"/>
                <mxCell id="ayR2dJtOEkhz936i-aBU-2" value="&lt;font style=&quot;font-size: 14px&quot;&gt;Allgemeine Verwaltung - Performance-Bericht erstellen&lt;/font&gt;" style="rounded=0;whiteSpace=wrap;html=1;verticalAlign=top;" parent="1" vertex="1">
                    <mxGeometry x="-950" y="50" width="710" height="734" as="geometry"/>
                </mxCell>
                <mxCell id="ayR2dJtOEkhz936i-aBU-26" style="edgeStyle=none;rounded=0;orthogonalLoop=1;jettySize=auto;html=1;entryX=0;entryY=0.5;entryDx=0;entryDy=0;fontSize=12;endArrow=none;endFill=0;" parent="1" source="ayR2dJtOEkhz936i-aBU-3" target="ayR2dJtOEkhz936i-aBU-34" edge="1">
                    <mxGeometry relative="1" as="geometry">
                        <mxPoint x="-820" y="284" as="targetPoint"/>
                    </mxGeometry>
                </mxCell>
                <mxCell id="ayR2dJtOEkhz936i-aBU-3" value="Unternehmenszentrale" style="shape=umlActor;verticalLabelPosition=bottom;verticalAlign=top;html=1;outlineConnect=0;" parent="1" vertex="1">
                    <mxGeometry x="-1040" y="254" width="30" height="60" as="geometry"/>
                </mxCell>
                <mxCell id="ayR2dJtOEkhz936i-aBU-16" value="Dashboard der einzelnen Mietstationen abrufen" style="ellipse;whiteSpace=wrap;html=1;" parent="1" vertex="1">
                    <mxGeometry x="-440" y="310" width="160" height="110" as="geometry"/>
                </mxCell>
                <mxCell id="ayR2dJtOEkhz936i-aBU-35" style="edgeStyle=none;rounded=0;orthogonalLoop=1;jettySize=auto;html=1;entryX=0.5;entryY=1;entryDx=0;entryDy=0;dashed=1;fontSize=12;endArrow=none;endFill=0;startArrow=classic;startFill=1;" parent="1" source="ayR2dJtOEkhz936i-aBU-44" target="ayR2dJtOEkhz936i-aBU-34" edge="1">
                    <mxGeometry relative="1" as="geometry">
                        <Array as="points"/>
                        <mxPoint x="-675.3011132557449" y="251.65055662787245" as="sourcePoint"/>
                    </mxGeometry>
                </mxCell>
                <mxCell id="ayR2dJtOEkhz936i-aBU-25" style="edgeStyle=none;rounded=0;orthogonalLoop=1;jettySize=auto;html=1;entryX=1;entryY=0.5;entryDx=0;entryDy=0;fontSize=12;endArrow=none;endFill=0;exitX=0;exitY=0.5;exitDx=0;exitDy=0;" parent="1" source="7" target="ayR2dJtOEkhz936i-aBU-16" edge="1">
                    <mxGeometry relative="1" as="geometry">
                        <mxPoint x="-1010" y="566.3170731707316" as="sourcePoint"/>
                        <mxPoint x="-820" y="659" as="targetPoint"/>
                    </mxGeometry>
                </mxCell>
                <mxCell id="ayR2dJtOEkhz936i-aBU-29" value="&amp;lt;&amp;lt;includes&amp;gt;&amp;gt;" style="text;html=1;strokeColor=none;fillColor=none;align=center;verticalAlign=middle;whiteSpace=wrap;rounded=0;fontSize=12;" parent="1" vertex="1">
                    <mxGeometry x="-560" y="260" width="60" height="30" as="geometry"/>
                </mxCell>
                <mxCell id="45" style="edgeStyle=none;html=1;endArrow=none;endFill=0;entryX=0;entryY=0.815;entryDx=0;entryDy=0;entryPerimeter=0;" edge="1" parent="1" source="ayR2dJtOEkhz936i-aBU-34" target="17">
                    <mxGeometry relative="1" as="geometry"/>
                </mxCell>
                <mxCell id="108" style="edgeStyle=none;html=1;endArrow=none;endFill=0;" edge="1" parent="1" source="ayR2dJtOEkhz936i-aBU-34">
                    <mxGeometry relative="1" as="geometry">
                        <mxPoint x="280" y="320" as="targetPoint"/>
                    </mxGeometry>
                </mxCell>
                <mxCell id="ayR2dJtOEkhz936i-aBU-34" value="Performance-Bericht erstellen" style="ellipse;whiteSpace=wrap;html=1;fontSize=12;" parent="1" vertex="1">
                    <mxGeometry x="-810" y="100" width="160" height="110" as="geometry"/>
                </mxCell>
                <mxCell id="ayR2dJtOEkhz936i-aBU-36" value="&amp;lt;&amp;lt;extends&amp;gt;&amp;gt;" style="text;html=1;strokeColor=none;fillColor=none;align=center;verticalAlign=middle;whiteSpace=wrap;rounded=0;fontSize=12;rotation=0;" parent="1" vertex="1">
                    <mxGeometry x="-820" y="230" width="60" height="30" as="geometry"/>
                </mxCell>
                <mxCell id="ayR2dJtOEkhz936i-aBU-37" value="&lt;font style=&quot;font-size: 12px&quot;&gt;{noch kein Performance-Bericht vorhanden}&lt;/font&gt;" style="shape=note2;boundedLbl=1;whiteSpace=wrap;html=1;size=25;verticalAlign=top;align=left;spacingLeft=5;fontSize=14;" parent="1" vertex="1">
                    <mxGeometry x="-670" y="360" width="190" height="80" as="geometry"/>
                </mxCell>
                <mxCell id="ayR2dJtOEkhz936i-aBU-38" value="condition:" style="resizeWidth=1;part=1;strokeColor=none;fillColor=none;align=left;spacingLeft=5;fontSize=14;" parent="ayR2dJtOEkhz936i-aBU-37" vertex="1">
                    <mxGeometry width="190" height="25" relative="1" as="geometry"/>
                </mxCell>
                <mxCell id="ayR2dJtOEkhz936i-aBU-39" value="" style="endArrow=none;dashed=1;html=1;dashPattern=1 3;strokeWidth=2;rounded=0;fontSize=12;entryX=0;entryY=0.5;entryDx=0;entryDy=0;entryPerimeter=0;" parent="1" target="ayR2dJtOEkhz936i-aBU-37" edge="1">
                    <mxGeometry width="50" height="50" relative="1" as="geometry">
                        <mxPoint x="-750" y="260" as="sourcePoint"/>
                        <mxPoint x="-170" y="174" as="targetPoint"/>
                    </mxGeometry>
                </mxCell>
                <mxCell id="ayR2dJtOEkhz936i-aBU-46" style="edgeStyle=none;rounded=0;orthogonalLoop=1;jettySize=auto;html=1;entryX=0.5;entryY=0;entryDx=0;entryDy=0;dashed=1;fontSize=12;startArrow=none;startFill=0;endArrow=classic;endFill=1;" parent="1" source="ayR2dJtOEkhz936i-aBU-34" target="ayR2dJtOEkhz936i-aBU-16" edge="1">
                    <mxGeometry relative="1" as="geometry">
                        <mxPoint x="-390" y="374.0000000000001" as="targetPoint"/>
                    </mxGeometry>
                </mxCell>
                <mxCell id="ayR2dJtOEkhz936i-aBU-44" value="Performance-Bericht darstellen" style="ellipse;whiteSpace=wrap;html=1;fontSize=12;" parent="1" vertex="1">
                    <mxGeometry x="-880" y="320" width="160" height="110" as="geometry"/>
                </mxCell>
                <mxCell id="ayR2dJtOEkhz936i-aBU-45" style="edgeStyle=none;rounded=0;orthogonalLoop=1;jettySize=auto;html=1;exitX=1;exitY=0.5;exitDx=0;exitDy=0;dashed=1;fontSize=12;startArrow=none;startFill=0;endArrow=classic;endFill=1;" parent="1" edge="1">
                    <mxGeometry relative="1" as="geometry">
                        <mxPoint x="-530" y="429" as="sourcePoint"/>
                        <mxPoint x="-530" y="429" as="targetPoint"/>
                    </mxGeometry>
                </mxCell>
                <mxCell id="6" value="Datenbank" style="shape=cylinder3;whiteSpace=wrap;html=1;boundedLbl=1;backgroundOutline=1;size=15;" parent="1" vertex="1">
                    <mxGeometry x="-150" y="644.5" width="70" height="81" as="geometry"/>
                </mxCell>
                <mxCell id="7" value="&amp;lt;&amp;lt;actor&amp;gt;&amp;gt;&lt;br&gt;&lt;b&gt;Mietstation&lt;/b&gt;" style="text;html=1;align=center;verticalAlign=middle;dashed=0;fillColor=#ffffff;strokeColor=#000000;" parent="1" vertex="1">
                    <mxGeometry x="-150" y="330" width="160" height="70" as="geometry"/>
                </mxCell>
                <mxCell id="8" style="edgeStyle=none;rounded=0;orthogonalLoop=1;jettySize=auto;html=1;dashed=1;fontSize=12;endArrow=none;endFill=0;startArrow=classic;startFill=1;" parent="1" source="ayR2dJtOEkhz936i-aBU-16" target="9" edge="1">
                    <mxGeometry relative="1" as="geometry">
                        <Array as="points"/>
                        <mxPoint x="-595.3011132557449" y="742.6505566278724" as="sourcePoint"/>
                    </mxGeometry>
                </mxCell>
                <mxCell id="9" value="Dashboard erstellen" style="ellipse;whiteSpace=wrap;html=1;fontSize=12;" parent="1" vertex="1">
                    <mxGeometry x="-440" y="630" width="160" height="110" as="geometry"/>
                </mxCell>
                <mxCell id="10" value="&lt;font style=&quot;font-size: 12px&quot;&gt;{noch kein Dashboard vorhanden}&lt;/font&gt;" style="shape=note2;boundedLbl=1;whiteSpace=wrap;html=1;size=25;verticalAlign=top;align=left;spacingLeft=5;fontSize=14;" parent="1" vertex="1">
                    <mxGeometry x="-660" y="540" width="190" height="80" as="geometry"/>
                </mxCell>
                <mxCell id="11" value="condition:" style="resizeWidth=1;part=1;strokeColor=none;fillColor=none;align=left;spacingLeft=5;fontSize=14;" parent="10" vertex="1">
                    <mxGeometry width="190" height="25" relative="1" as="geometry"/>
                </mxCell>
                <mxCell id="12" value="" style="endArrow=none;dashed=1;html=1;dashPattern=1 3;strokeWidth=2;rounded=0;fontSize=12;entryX=0;entryY=0;entryDx=190;entryDy=52.5;entryPerimeter=0;" parent="1" target="10" edge="1">
                    <mxGeometry width="50" height="50" relative="1" as="geometry">
                        <mxPoint x="-380" y="550" as="sourcePoint"/>
                        <mxPoint x="-90" y="665" as="targetPoint"/>
                    </mxGeometry>
                </mxCell>
                <mxCell id="14" value="&amp;lt;&amp;lt;extends&amp;gt;&amp;gt;" style="text;html=1;strokeColor=none;fillColor=none;align=center;verticalAlign=middle;whiteSpace=wrap;rounded=0;fontSize=12;rotation=0;" parent="1" vertex="1">
                    <mxGeometry x="-360" y="540" width="60" height="30" as="geometry"/>
                </mxCell>
                <mxCell id="15" style="edgeStyle=none;rounded=0;orthogonalLoop=1;jettySize=auto;html=1;entryX=1;entryY=0.5;entryDx=0;entryDy=0;fontSize=12;endArrow=none;endFill=0;exitX=0;exitY=0.5;exitDx=0;exitDy=0;exitPerimeter=0;" parent="1" source="6" target="9" edge="1">
                    <mxGeometry relative="1" as="geometry">
                        <mxPoint x="-10" y="670" as="sourcePoint"/>
                        <mxPoint x="-230" y="670" as="targetPoint"/>
                    </mxGeometry>
                </mxCell>
                <mxCell id="16" style="edgeStyle=none;rounded=0;orthogonalLoop=1;jettySize=auto;html=1;entryX=-0.008;entryY=0.35;entryDx=0;entryDy=0;fontSize=12;endArrow=none;endFill=0;entryPerimeter=0;" parent="1" target="ayR2dJtOEkhz936i-aBU-44" edge="1">
                    <mxGeometry relative="1" as="geometry">
                        <mxPoint x="-810" y="294" as="targetPoint"/>
                        <mxPoint x="-1010" y="294" as="sourcePoint"/>
                    </mxGeometry>
                </mxCell>
                <mxCell id="17" value="Performance-Bericht erstellen" style="shape=umlFrame;whiteSpace=wrap;html=1;width=240;height=30;boundedLbl=1;verticalAlign=middle;align=left;spacingLeft=5;fontSize=14;" vertex="1" parent="1">
                    <mxGeometry x="280" y="-720" width="1140" height="880" as="geometry"/>
                </mxCell>
                <mxCell id="18" value="loop Mietstationen" style="shape=umlFrame;whiteSpace=wrap;html=1;width=90;height=40;" vertex="1" parent="1">
                    <mxGeometry x="320" y="-570" width="570" height="380" as="geometry"/>
                </mxCell>
                <mxCell id="19" value="loop Leistungskennziffern" style="shape=umlFrame;whiteSpace=wrap;html=1;width=130;height=40;" vertex="1" parent="1">
                    <mxGeometry x="494" y="-523" width="370" height="140" as="geometry"/>
                </mxCell>
                <mxCell id="20" value=":Unternehmenszentrale" style="shape=umlLifeline;perimeter=lifelinePerimeter;whiteSpace=wrap;html=1;container=1;collapsible=0;recursiveResize=0;outlineConnect=0;" vertex="1" parent="1">
                    <mxGeometry x="390" y="-640" width="140" height="760" as="geometry"/>
                </mxCell>
                <mxCell id="21" value=":Mietstation" style="shape=umlLifeline;perimeter=lifelinePerimeter;whiteSpace=wrap;html=1;container=1;collapsible=0;recursiveResize=0;outlineConnect=0;" vertex="1" parent="1">
                    <mxGeometry x="590" y="-640" width="100" height="760" as="geometry"/>
                </mxCell>
                <mxCell id="22" value=":Performancebericht" style="shape=umlLifeline;perimeter=lifelinePerimeter;whiteSpace=wrap;html=1;container=1;collapsible=0;recursiveResize=0;outlineConnect=0;" vertex="1" parent="1">
                    <mxGeometry x="1200" y="-160" width="115" height="280" as="geometry"/>
                </mxCell>
                <mxCell id="23" value="" style="html=1;points=[];perimeter=orthogonalPerimeter;" vertex="1" parent="22">
                    <mxGeometry x="52.5" y="140" width="10" height="120" as="geometry"/>
                </mxCell>
                <mxCell id="24" value="" style="html=1;points=[];perimeter=orthogonalPerimeter;" vertex="1" parent="22">
                    <mxGeometry x="58" y="170" width="10" height="40" as="geometry"/>
                </mxCell>
                <mxCell id="25" value="" style="html=1;verticalAlign=bottom;endArrow=open;dashed=1;endSize=8;rounded=0;exitX=1.217;exitY=0.958;exitDx=0;exitDy=0;exitPerimeter=0;" edge="1" parent="22" source="24" target="23">
                    <mxGeometry x="-0.0109" y="20" relative="1" as="geometry">
                        <mxPoint x="130" y="200" as="sourcePoint"/>
                        <mxPoint x="-1" y="243" as="targetPoint"/>
                        <Array as="points">
                            <mxPoint x="130" y="208"/>
                            <mxPoint x="130" y="230"/>
                        </Array>
                        <mxPoint as="offset"/>
                    </mxGeometry>
                </mxCell>
                <mxCell id="26" value="berichtDarstellen()" style="edgeStyle=orthogonalEdgeStyle;html=1;align=left;spacingLeft=2;endArrow=block;rounded=0;entryX=1;entryY=0;" edge="1" parent="22" source="23" target="24">
                    <mxGeometry x="-0.4369" y="12" relative="1" as="geometry">
                        <mxPoint x="66" y="153" as="sourcePoint"/>
                        <Array as="points">
                            <mxPoint x="130" y="152"/>
                            <mxPoint x="130" y="170"/>
                        </Array>
                        <mxPoint as="offset"/>
                    </mxGeometry>
                </mxCell>
                <mxCell id="27" value="" style="html=1;points=[];perimeter=orthogonalPerimeter;" vertex="1" parent="1">
                    <mxGeometry x="455" y="-550" width="10" height="640" as="geometry"/>
                </mxCell>
                <mxCell id="28" value="" style="html=1;points=[];perimeter=orthogonalPerimeter;" vertex="1" parent="1">
                    <mxGeometry x="635" y="-540" width="10" height="340" as="geometry"/>
                </mxCell>
                <mxCell id="29" value="getAktuellesDashboard()" style="html=1;verticalAlign=bottom;endArrow=block;rounded=0;" edge="1" parent="1" source="27" target="28">
                    <mxGeometry width="80" relative="1" as="geometry">
                        <mxPoint x="460" y="-549" as="sourcePoint"/>
                        <mxPoint x="810" y="-250" as="targetPoint"/>
                        <Array as="points">
                            <mxPoint x="560" y="-540"/>
                        </Array>
                    </mxGeometry>
                </mxCell>
                <mxCell id="30" value="" style="html=1;points=[];perimeter=orthogonalPerimeter;" vertex="1" parent="1">
                    <mxGeometry x="639" y="-348.03" width="10" height="30" as="geometry"/>
                </mxCell>
                <mxCell id="31" value="dashboardErstellen()" style="edgeStyle=orthogonalEdgeStyle;html=1;align=left;spacingLeft=2;endArrow=block;rounded=0;entryX=1;entryY=0;" edge="1" parent="1" target="30">
                    <mxGeometry relative="1" as="geometry">
                        <mxPoint x="644" y="-367.99551724137905" as="sourcePoint"/>
                        <Array as="points">
                            <mxPoint x="669" y="-368.03"/>
                            <mxPoint x="669" y="-348.03"/>
                        </Array>
                    </mxGeometry>
                </mxCell>
                <mxCell id="32" value="dashboardErstellen(): Dashboard" style="html=1;verticalAlign=bottom;endArrow=open;dashed=1;endSize=8;rounded=0;" edge="1" parent="1" source="30">
                    <mxGeometry x="0.2308" y="-86" relative="1" as="geometry">
                        <mxPoint x="849" y="-328.03" as="sourcePoint"/>
                        <mxPoint x="644" y="-298.03" as="targetPoint"/>
                        <Array as="points">
                            <mxPoint x="669" y="-318.03"/>
                            <mxPoint x="669" y="-298.03"/>
                        </Array>
                        <mxPoint x="86" y="86" as="offset"/>
                    </mxGeometry>
                </mxCell>
                <mxCell id="33" value="" style="html=1;points=[];perimeter=orthogonalPerimeter;" vertex="1" parent="1">
                    <mxGeometry x="640" y="-487" width="10" height="30" as="geometry"/>
                </mxCell>
                <mxCell id="34" value="leistungskennzifferBerechnen()" style="edgeStyle=orthogonalEdgeStyle;html=1;align=left;spacingLeft=2;endArrow=block;rounded=0;entryX=1;entryY=0;" edge="1" parent="1" target="33">
                    <mxGeometry relative="1" as="geometry">
                        <mxPoint x="646" y="-507" as="sourcePoint"/>
                        <Array as="points">
                            <mxPoint x="676" y="-507"/>
                        </Array>
                    </mxGeometry>
                </mxCell>
                <mxCell id="35" value="leistungskennzifferBerechnen(): &lt;br&gt;Leistungskennziffer" style="html=1;verticalAlign=bottom;endArrow=open;dashed=1;endSize=8;rounded=0;" edge="1" parent="1" source="33">
                    <mxGeometry x="0.2086" y="91" relative="1" as="geometry">
                        <mxPoint x="743" y="-427" as="sourcePoint"/>
                        <mxPoint x="645.4999999999995" y="-437" as="targetPoint"/>
                        <Array as="points">
                            <mxPoint x="673" y="-457"/>
                            <mxPoint x="673" y="-437"/>
                        </Array>
                        <mxPoint x="90" y="-81" as="offset"/>
                    </mxGeometry>
                </mxCell>
                <mxCell id="36" value="getAktuellesDashboard():&lt;br&gt;Dashboard" style="html=1;verticalAlign=bottom;endArrow=open;dashed=1;endSize=8;rounded=0;" edge="1" parent="1">
                    <mxGeometry y="-10" relative="1" as="geometry">
                        <mxPoint x="634" y="-277" as="sourcePoint"/>
                        <mxPoint x="464" y="-277" as="targetPoint"/>
                        <Array as="points">
                            <mxPoint x="549" y="-277"/>
                        </Array>
                        <mxPoint as="offset"/>
                    </mxGeometry>
                </mxCell>
                <mxCell id="37" value="dashboardSpeichern()" style="html=1;verticalAlign=bottom;endArrow=block;rounded=0;" edge="1" parent="1">
                    <mxGeometry x="0.2577" y="60" width="80" relative="1" as="geometry">
                        <mxPoint x="464" y="-253" as="sourcePoint"/>
                        <mxPoint x="464" y="-226" as="targetPoint"/>
                        <Array as="points">
                            <mxPoint x="499" y="-253"/>
                            <mxPoint x="499" y="-226"/>
                        </Array>
                        <mxPoint as="offset"/>
                    </mxGeometry>
                </mxCell>
                <mxCell id="38" value="" style="html=1;points=[];perimeter=orthogonalPerimeter;" vertex="1" parent="1">
                    <mxGeometry x="460" y="-160" width="10" height="43" as="geometry"/>
                </mxCell>
                <mxCell id="39" value="erstellePerformancebericht()" style="edgeStyle=orthogonalEdgeStyle;html=1;align=left;spacingLeft=2;endArrow=block;rounded=0;entryX=1;entryY=0;" edge="1" parent="1" target="38">
                    <mxGeometry relative="1" as="geometry">
                        <mxPoint x="465" y="-180" as="sourcePoint"/>
                        <Array as="points">
                            <mxPoint x="489" y="-180"/>
                            <mxPoint x="489" y="-160"/>
                        </Array>
                    </mxGeometry>
                </mxCell>
                <mxCell id="40" value="erstellePerformancebericht(): &lt;br&gt;Performanceberich" style="html=1;verticalAlign=bottom;endArrow=open;dashed=1;endSize=8;rounded=0;" edge="1" parent="1" source="38">
                    <mxGeometry x="0.2187" y="81" relative="1" as="geometry">
                        <mxPoint x="599" y="-97" as="sourcePoint"/>
                        <mxPoint x="464" y="-97" as="targetPoint"/>
                        <Array as="points">
                            <mxPoint x="489" y="-117"/>
                            <mxPoint x="489" y="-97"/>
                        </Array>
                        <mxPoint x="80" y="-71" as="offset"/>
                    </mxGeometry>
                </mxCell>
                <mxCell id="41" value="create" style="endArrow=open;endSize=12;dashed=1;html=1;rounded=0;entryX=0;entryY=0.092;entryDx=0;entryDy=0;entryPerimeter=0;" edge="1" parent="1" source="38" target="22">
                    <mxGeometry x="0.0069" y="10" width="160" relative="1" as="geometry">
                        <mxPoint x="464" y="-62.930000000000064" as="sourcePoint"/>
                        <mxPoint x="759" y="-137" as="targetPoint"/>
                        <mxPoint as="offset"/>
                    </mxGeometry>
                </mxCell>
                <mxCell id="42" value="zeigePerformancebericht()" style="html=1;verticalAlign=bottom;endArrow=block;rounded=0;" edge="1" parent="1" target="23">
                    <mxGeometry width="80" relative="1" as="geometry">
                        <mxPoint x="464" y="-17" as="sourcePoint"/>
                        <mxPoint x="719" y="-137" as="targetPoint"/>
                    </mxGeometry>
                </mxCell>
                <mxCell id="43" value="" style="html=1;verticalAlign=bottom;endArrow=open;dashed=1;endSize=8;rounded=0;" edge="1" parent="1" source="23">
                    <mxGeometry x="0.026" y="-40" relative="1" as="geometry">
                        <mxPoint x="929" y="113" as="sourcePoint"/>
                        <mxPoint x="464" y="83" as="targetPoint"/>
                        <Array as="points">
                            <mxPoint x="859" y="83"/>
                        </Array>
                        <mxPoint as="offset"/>
                    </mxGeometry>
                </mxCell>
                <mxCell id="44" value="speichereLeistungskennziffer()" style="html=1;verticalAlign=bottom;endArrow=block;rounded=0;" edge="1" parent="1" source="28" target="28">
                    <mxGeometry x="0.3333" y="-85" width="80" relative="1" as="geometry">
                        <mxPoint x="690" y="-380" as="sourcePoint"/>
                        <mxPoint x="770" y="-380" as="targetPoint"/>
                        <Array as="points">
                            <mxPoint x="665" y="-420"/>
                            <mxPoint x="665" y="-400"/>
                        </Array>
                        <mxPoint x="85" y="85" as="offset"/>
                    </mxGeometry>
                </mxCell>
                <mxCell id="81" value="Unternehmenszentrale" style="swimlane;startSize=20;" vertex="1" parent="1">
                    <mxGeometry x="280" y="245" width="450" height="1255" as="geometry"/>
                </mxCell>
                <mxCell id="82" value="Dashboard anfragen" style="rounded=1;whiteSpace=wrap;html=1;" vertex="1" parent="81">
                    <mxGeometry x="280" y="245" width="120" height="60" as="geometry"/>
                </mxCell>
                <mxCell id="83" style="edgeStyle=orthogonalEdgeStyle;rounded=0;orthogonalLoop=1;jettySize=auto;html=1;" edge="1" parent="81" source="84" target="94">
                    <mxGeometry relative="1" as="geometry"/>
                </mxCell>
                <mxCell id="84" value="" style="ellipse;fillColor=#000000;strokeColor=none;" vertex="1" parent="81">
                    <mxGeometry x="115" y="40" width="30" height="30" as="geometry"/>
                </mxCell>
                <mxCell id="85" style="edgeStyle=orthogonalEdgeStyle;rounded=0;orthogonalLoop=1;jettySize=auto;html=1;" edge="1" parent="81" source="86" target="90">
                    <mxGeometry relative="1" as="geometry"/>
                </mxCell>
                <mxCell id="86" value="Dashboard speichern" style="rounded=1;whiteSpace=wrap;html=1;" vertex="1" parent="81">
                    <mxGeometry x="194" y="605" width="120" height="60" as="geometry"/>
                </mxCell>
                <mxCell id="87" value="Performancebericht erstellen" style="rounded=1;whiteSpace=wrap;html=1;" vertex="1" parent="81">
                    <mxGeometry x="10" y="1105" width="120" height="60" as="geometry"/>
                </mxCell>
                <mxCell id="88" style="edgeStyle=orthogonalEdgeStyle;rounded=0;orthogonalLoop=1;jettySize=auto;html=1;entryX=0;entryY=0.5;entryDx=0;entryDy=0;" edge="1" parent="81" source="90" target="82">
                    <mxGeometry relative="1" as="geometry"/>
                </mxCell>
                <mxCell id="89" style="edgeStyle=orthogonalEdgeStyle;rounded=0;orthogonalLoop=1;jettySize=auto;html=1;" edge="1" parent="81" source="90" target="87">
                    <mxGeometry relative="1" as="geometry">
                        <Array as="points">
                            <mxPoint x="70" y="275"/>
                        </Array>
                    </mxGeometry>
                </mxCell>
                <mxCell id="90" value="" style="strokeWidth=2;html=1;shape=mxgraph.flowchart.decision;whiteSpace=wrap;" vertex="1" parent="81">
                    <mxGeometry x="105" y="250" width="50" height="50" as="geometry"/>
                </mxCell>
                <mxCell id="91" value="[weitere Mietstation]" style="text;html=1;align=center;verticalAlign=middle;resizable=0;points=[];autosize=1;strokeColor=none;fillColor=none;" vertex="1" parent="81">
                    <mxGeometry x="150" y="250" width="120" height="20" as="geometry"/>
                </mxCell>
                <mxCell id="92" value="[else]" style="text;html=1;align=center;verticalAlign=middle;resizable=0;points=[];autosize=1;strokeColor=none;fillColor=none;" vertex="1" parent="81">
                    <mxGeometry x="50" y="250" width="40" height="20" as="geometry"/>
                </mxCell>
                <mxCell id="93" style="edgeStyle=orthogonalEdgeStyle;rounded=0;orthogonalLoop=1;jettySize=auto;html=1;" edge="1" parent="81" source="94" target="90">
                    <mxGeometry relative="1" as="geometry"/>
                </mxCell>
                <mxCell id="94" value="Mietstationen abrufen" style="rounded=1;whiteSpace=wrap;html=1;" vertex="1" parent="81">
                    <mxGeometry x="70" y="130" width="120" height="60" as="geometry"/>
                </mxCell>
                <mxCell id="95" value="Mietstation" style="swimlane;startSize=20;" vertex="1" parent="1">
                    <mxGeometry x="730" y="245" width="1260" height="1255" as="geometry"/>
                </mxCell>
                <mxCell id="111" style="edgeStyle=orthogonalEdgeStyle;html=1;entryX=0.5;entryY=0;entryDx=0;entryDy=0;endArrow=classic;endFill=1;rounded=0;" edge="1" parent="95" source="97" target="109">
                    <mxGeometry relative="1" as="geometry">
                        <Array as="points">
                            <mxPoint x="595" y="275"/>
                        </Array>
                    </mxGeometry>
                </mxCell>
                <mxCell id="97" value="Leistungskennziffern berechnen" style="rounded=1;whiteSpace=wrap;html=1;" vertex="1" parent="95">
                    <mxGeometry x="110" y="245" width="120" height="60" as="geometry"/>
                </mxCell>
                <mxCell id="110" value="" style="group" vertex="1" connectable="0" parent="95">
                    <mxGeometry x="110" y="355" width="970" height="560" as="geometry"/>
                </mxCell>
                <mxCell id="109" value="" style="rounded=1;whiteSpace=wrap;html=1;" vertex="1" parent="110">
                    <mxGeometry width="970" height="560" as="geometry"/>
                </mxCell>
                <mxCell id="51" value="" style="html=1;points=[];perimeter=orthogonalPerimeter;fillColor=#000000;strokeColor=none;" vertex="1" parent="110">
                    <mxGeometry x="300" y="40" width="5" height="80" as="geometry"/>
                </mxCell>
                <mxCell id="52" value="Fahrzeuge abfragen" style="rounded=1;whiteSpace=wrap;html=1;" vertex="1" parent="110">
                    <mxGeometry x="789" y="63" width="120" height="60" as="geometry"/>
                </mxCell>
                <mxCell id="47" value="" style="edgeStyle=orthogonalEdgeStyle;rounded=0;jumpStyle=none;html=1;exitX=0.556;exitY=0.054;exitDx=0;exitDy=0;exitPerimeter=0;" edge="1" parent="110" source="51" target="52">
                    <mxGeometry relative="1" as="geometry">
                        <Array as="points">
                            <mxPoint x="849" y="44"/>
                        </Array>
                    </mxGeometry>
                </mxCell>
                <mxCell id="54" value="Fahrten abfragen" style="rounded=1;whiteSpace=wrap;html=1;" vertex="1" parent="110">
                    <mxGeometry x="629" y="122" width="120" height="60" as="geometry"/>
                </mxCell>
                <mxCell id="48" value="" style="edgeStyle=orthogonalEdgeStyle;rounded=0;jumpStyle=none;html=1;exitX=0.833;exitY=0.301;exitDx=0;exitDy=0;exitPerimeter=0;" edge="1" parent="110" source="51" target="54">
                    <mxGeometry relative="1" as="geometry">
                        <Array as="points"/>
                    </mxGeometry>
                </mxCell>
                <mxCell id="55" style="edgeStyle=orthogonalEdgeStyle;rounded=0;jumpStyle=none;html=1;entryX=0.111;entryY=0.471;entryDx=0;entryDy=0;entryPerimeter=0;" edge="1" parent="110" source="56" target="51">
                    <mxGeometry relative="1" as="geometry"/>
                </mxCell>
                <mxCell id="56" value="Dashboard erstellen" style="rounded=1;whiteSpace=wrap;html=1;" vertex="1" parent="110">
                    <mxGeometry x="140" y="48" width="120" height="60" as="geometry"/>
                </mxCell>
                <mxCell id="59" value="Umsatz abfragen" style="rounded=1;whiteSpace=wrap;html=1;" vertex="1" parent="110">
                    <mxGeometry x="469" y="182" width="120" height="60" as="geometry"/>
                </mxCell>
                <mxCell id="49" value="" style="edgeStyle=orthogonalEdgeStyle;rounded=0;jumpStyle=none;html=1;exitX=0.5;exitY=0.703;exitDx=0;exitDy=0;exitPerimeter=0;" edge="1" parent="110" source="51" target="59">
                    <mxGeometry relative="1" as="geometry"/>
                </mxCell>
                <mxCell id="62" value="Ausgaben abfragen" style="rounded=1;whiteSpace=wrap;html=1;" vertex="1" parent="110">
                    <mxGeometry x="329" y="242" width="120" height="60" as="geometry"/>
                </mxCell>
                <mxCell id="50" value="" style="edgeStyle=orthogonalEdgeStyle;rounded=0;jumpStyle=none;html=1;exitX=0.778;exitY=0.95;exitDx=0;exitDy=0;exitPerimeter=0;" edge="1" parent="110" source="51" target="62">
                    <mxGeometry relative="1" as="geometry">
                        <Array as="points">
                            <mxPoint x="389" y="117"/>
                        </Array>
                    </mxGeometry>
                </mxCell>
                <mxCell id="65" value="Leistungskennziffer erstellen" style="rounded=1;whiteSpace=wrap;html=1;" vertex="1" parent="110">
                    <mxGeometry x="629" y="222" width="120" height="60" as="geometry"/>
                </mxCell>
                <mxCell id="53" value="" style="edgeStyle=orthogonalEdgeStyle;rounded=0;jumpStyle=none;html=1;" edge="1" parent="110" source="54" target="65">
                    <mxGeometry relative="1" as="geometry"/>
                </mxCell>
                <mxCell id="66" value="" style="html=1;points=[];perimeter=orthogonalPerimeter;fillColor=#000000;strokeColor=none;" vertex="1" parent="110">
                    <mxGeometry x="300" y="446" width="5" height="80" as="geometry"/>
                </mxCell>
                <mxCell id="68" value="Leistungskennziffer erstellen" style="rounded=1;whiteSpace=wrap;html=1;" vertex="1" parent="110">
                    <mxGeometry x="789" y="222" width="120" height="60" as="geometry"/>
                </mxCell>
                <mxCell id="69" value="" style="edgeStyle=orthogonalEdgeStyle;rounded=0;jumpStyle=none;html=1;" edge="1" parent="110" source="52" target="68">
                    <mxGeometry relative="1" as="geometry"/>
                </mxCell>
                <mxCell id="70" style="edgeStyle=orthogonalEdgeStyle;rounded=0;jumpStyle=none;html=1;entryX=1.067;entryY=0.91;entryDx=0;entryDy=0;entryPerimeter=0;exitX=0.5;exitY=1;exitDx=0;exitDy=0;" edge="1" parent="110" source="74" target="66">
                    <mxGeometry relative="1" as="geometry">
                        <mxPoint x="849" y="446" as="sourcePoint"/>
                        <Array as="points">
                            <mxPoint x="849" y="519"/>
                        </Array>
                    </mxGeometry>
                </mxCell>
                <mxCell id="71" value="Leistungskennziffer zum Dashboard hinzufügen" style="rounded=1;whiteSpace=wrap;html=1;" vertex="1" parent="110">
                    <mxGeometry x="329" y="332" width="120" height="60" as="geometry"/>
                </mxCell>
                <mxCell id="61" value="" style="edgeStyle=orthogonalEdgeStyle;rounded=0;jumpStyle=none;html=1;" edge="1" parent="110" source="62" target="71">
                    <mxGeometry relative="1" as="geometry"/>
                </mxCell>
                <mxCell id="60" style="edgeStyle=orthogonalEdgeStyle;rounded=0;jumpStyle=none;html=1;entryX=1.078;entryY=0.116;entryDx=0;entryDy=0;entryPerimeter=0;exitX=0.5;exitY=1;exitDx=0;exitDy=0;" edge="1" parent="110" source="71" target="66">
                    <mxGeometry relative="1" as="geometry">
                        <mxPoint x="389" y="376" as="sourcePoint"/>
                        <Array as="points">
                            <mxPoint x="389" y="455"/>
                        </Array>
                    </mxGeometry>
                </mxCell>
                <mxCell id="72" value="Leistungskennziffer zum Dashboard hinzufügen" style="rounded=1;whiteSpace=wrap;html=1;" vertex="1" parent="110">
                    <mxGeometry x="469" y="332" width="120" height="60" as="geometry"/>
                </mxCell>
                <mxCell id="58" style="edgeStyle=orthogonalEdgeStyle;rounded=0;jumpStyle=none;html=1;entryX=0.5;entryY=0;entryDx=0;entryDy=0;" edge="1" parent="110" source="59" target="72">
                    <mxGeometry relative="1" as="geometry"/>
                </mxCell>
                <mxCell id="57" style="edgeStyle=orthogonalEdgeStyle;rounded=0;jumpStyle=none;html=1;entryX=0.976;entryY=0.385;entryDx=0;entryDy=0;entryPerimeter=0;exitX=0.5;exitY=1;exitDx=0;exitDy=0;exitPerimeter=0;" edge="1" parent="110" source="72" target="66">
                    <mxGeometry relative="1" as="geometry">
                        <mxPoint x="529" y="326" as="sourcePoint"/>
                        <Array as="points">
                            <mxPoint x="529" y="477"/>
                        </Array>
                    </mxGeometry>
                </mxCell>
                <mxCell id="73" value="Leistungskennziffer zum Dashboard hinzufügen" style="rounded=1;whiteSpace=wrap;html=1;" vertex="1" parent="110">
                    <mxGeometry x="629" y="332" width="120" height="60" as="geometry"/>
                </mxCell>
                <mxCell id="64" style="edgeStyle=orthogonalEdgeStyle;rounded=0;jumpStyle=none;html=1;" edge="1" parent="110" source="65" target="73">
                    <mxGeometry relative="1" as="geometry"/>
                </mxCell>
                <mxCell id="63" style="edgeStyle=orthogonalEdgeStyle;rounded=0;jumpStyle=none;html=1;entryX=1.129;entryY=0.648;entryDx=0;entryDy=0;entryPerimeter=0;exitX=0.5;exitY=1;exitDx=0;exitDy=0;" edge="1" parent="110" source="73" target="66">
                    <mxGeometry relative="1" as="geometry">
                        <mxPoint x="689" y="446" as="sourcePoint"/>
                        <Array as="points">
                            <mxPoint x="689" y="498"/>
                        </Array>
                    </mxGeometry>
                </mxCell>
                <mxCell id="74" value="Leistungskennziffer zum Dashboard hinzufügen" style="rounded=1;whiteSpace=wrap;html=1;" vertex="1" parent="110">
                    <mxGeometry x="789" y="332" width="120" height="60" as="geometry"/>
                </mxCell>
                <mxCell id="75" value="" style="edgeStyle=orthogonalEdgeStyle;rounded=0;jumpStyle=none;html=1;exitX=1;exitY=0.5;exitDx=0;exitDy=0;" edge="1" parent="110" source="78" target="56">
                    <mxGeometry relative="1" as="geometry">
                        <mxPoint x="-90" y="79" as="sourcePoint"/>
                    </mxGeometry>
                </mxCell>
                <mxCell id="76" style="edgeStyle=orthogonalEdgeStyle;rounded=0;jumpStyle=none;html=1;entryX=1;entryY=0.5;entryDx=0;entryDy=0;" edge="1" parent="110" source="66" target="80">
                    <mxGeometry relative="1" as="geometry">
                        <mxPoint x="90" y="486" as="targetPoint"/>
                    </mxGeometry>
                </mxCell>
                <mxCell id="77" value="" style="ellipse;html=1;shape=endState;fillColor=#000000;strokeColor=#000000;" vertex="1" parent="110">
                    <mxGeometry x="60" y="471" width="30" height="30" as="geometry"/>
                </mxCell>
                <mxCell id="78" value="" style="ellipse;fillColor=#000000;strokeColor=none;" vertex="1" parent="110">
                    <mxGeometry x="50" y="63" width="30" height="30" as="geometry"/>
                </mxCell>
                <mxCell id="79" style="edgeStyle=orthogonalEdgeStyle;rounded=0;jumpStyle=none;html=1;entryX=1;entryY=0.5;entryDx=0;entryDy=0;" edge="1" parent="110" source="80" target="77">
                    <mxGeometry relative="1" as="geometry"/>
                </mxCell>
                <mxCell id="80" value="Leistungskennziffern sortieren" style="rounded=1;whiteSpace=wrap;html=1;" vertex="1" parent="110">
                    <mxGeometry x="130" y="456" width="120" height="60" as="geometry"/>
                </mxCell>
                <mxCell id="67" style="edgeStyle=orthogonalEdgeStyle;rounded=0;jumpStyle=none;html=1;" edge="1" parent="110" source="68" target="74">
                    <mxGeometry relative="1" as="geometry"/>
                </mxCell>
                <mxCell id="99" style="edgeStyle=orthogonalEdgeStyle;rounded=0;orthogonalLoop=1;jettySize=auto;html=1;" edge="1" parent="1" source="82" target="97">
                    <mxGeometry relative="1" as="geometry"/>
                </mxCell>
                <mxCell id="100" style="edgeStyle=orthogonalEdgeStyle;rounded=0;orthogonalLoop=1;jettySize=auto;html=1;exitX=0;exitY=0.5;exitDx=0;exitDy=0;" edge="1" parent="1" source="109" target="86">
                    <mxGeometry relative="1" as="geometry">
                        <mxPoint x="840" y="629" as="sourcePoint"/>
                    </mxGeometry>
                </mxCell>
                <mxCell id="101" value="Performancebericht" style="swimlane;startSize=20;" vertex="1" parent="1">
                    <mxGeometry x="1990" y="245" width="270" height="1255" as="geometry"/>
                </mxCell>
                <mxCell id="102" style="edgeStyle=orthogonalEdgeStyle;rounded=0;orthogonalLoop=1;jettySize=auto;html=1;" edge="1" parent="101" source="103" target="104">
                    <mxGeometry relative="1" as="geometry"/>
                </mxCell>
                <mxCell id="103" value="Performancebericht anzeigen" style="rounded=1;whiteSpace=wrap;html=1;" vertex="1" parent="101">
                    <mxGeometry x="90" y="1105" width="120" height="60" as="geometry"/>
                </mxCell>
                <mxCell id="104" value="" style="ellipse;html=1;shape=endState;fillColor=#000000;strokeColor=#000000;" vertex="1" parent="101">
                    <mxGeometry x="135" y="1195" width="30" height="30" as="geometry"/>
                </mxCell>
                <mxCell id="105" style="edgeStyle=orthogonalEdgeStyle;rounded=0;orthogonalLoop=1;jettySize=auto;html=1;" edge="1" parent="1" source="87" target="103">
                    <mxGeometry relative="1" as="geometry"/>
                </mxCell>
            </root>
        </mxGraphModel>
    </diagram>
</mxfile>